<svg xmlns="http://www.w3.org/2000/svg" version="1.1" xmlns:xlink="http://www.w3.org/1999/xlink" xmlns:svgjs="http://svgjs.dev/svgjs" width="2000" height="1247" viewBox="0 0 2000 1247"><g transform="matrix(1,0,0,1,-1.2121212121212466,0.5048582995952984)"><svg viewBox="0 0 396 247" data-background-color="#000000" preserveAspectRatio="xMidYMid meet" height="1247" width="2000" xmlns="http://www.w3.org/2000/svg" xmlns:xlink="http://www.w3.org/1999/xlink"><g id="tight-bounds" transform="matrix(1,0,0,1,0.2400000000000091,-0.09999999999999432)"><svg viewBox="0 0 395.52 247.2" height="247.2" width="395.52"><rect width="395.52" height="247.20000000000005" fill="url(#8e886b1a-fcd5-4258-abcd-71ee8b90ae65)" mask="url(#8c779d02-cb50-414e-96b5-6b70b784f67b)" data-fill-palette-color="tertiary"></rect><g><svg></svg></g><g><svg viewBox="0 0 395.52 247.2" height="247.2" width="395.52"><g transform="matrix(1,0,0,1,75.54432000000001,54.7460957746479)"><svg viewBox="0 0 244.43135999999996 137.7078084507042" height="137.7078084507042" width="244.43135999999996"><g><svg viewBox="0 0 244.43135999999996 137.7078084507042" height="137.7078084507042" width="244.43135999999996"><g><svg viewBox="0 0 244.43136 137.70780845070422" height="137.7078084507042" width="244.43135999999996"><g><svg viewBox="0 0 244.43136 137.70780845070422" height="137.70780845070422" width="244.43136"><g id="textblocktransform"><svg viewBox="0 0 244.43136 137.70780845070422" height="137.70780845070422" width="244.43136" id="textblock"><g><svg viewBox="0 0 244.43136 137.70780845070422" height="137.70780845070422" width="244.43136"><g transform="matrix(1,0,0,1,0,0)"><svg width="244.43136" viewBox="5.4 -33.5 60.35 34" height="137.70780845070422" data-palette-color="url(#c166edf2-821e-4d96-a21e-ab09a417f4ca)"></svg></g></svg></g></svg></g></svg></g></svg></g></svg></g></svg></g><g><path d="M245.816 0c68.262 0 123.6 55.338 123.6 123.6 0 68.262-55.338 123.6-123.6 123.6-35.281 0-67.11-14.782-89.63-38.491h8.777c21.052 20.006 49.519 32.282 80.853 32.282 64.833 0 117.391-52.558 117.39-117.391 0-64.833-52.558-117.391-117.39-117.391-31.334 0-59.801 12.277-80.853 32.282l-8.777 0c22.52-23.709 54.349-38.491 89.63-38.491z" fill="url(#8e886b1a-fcd5-4258-abcd-71ee8b90ae65)" stroke="transparent" data-fill-palette-color="tertiary"></path></g></svg></g><defs></defs><mask id="ce5dbe82-9e89-4053-b93e-e8bdff6b1a2a"><g id="SvgjsG1353"><svg viewBox="0 0 395.52 247.2" height="247.2" width="395.52"><g><svg></svg></g><g><svg viewBox="0 0 395.52 247.2" height="247.2" width="395.52"><g transform="matrix(1,0,0,1,75.54432000000001,54.7460957746479)"><svg viewBox="0 0 244.43135999999996 137.7078084507042" height="137.7078084507042" width="244.43135999999996"><g><svg viewBox="0 0 244.43135999999996 137.7078084507042" height="137.7078084507042" width="244.43135999999996"><g><svg viewBox="0 0 244.43136 137.70780845070422" height="137.7078084507042" width="244.43135999999996"><g><svg viewBox="0 0 244.43136 137.70780845070422" height="137.70780845070422" width="244.43136"><g id="SvgjsG1352"><svg viewBox="0 0 244.43136 137.70780845070422" height="137.70780845070422" width="244.43136" id="SvgjsSvg1351"><g><svg viewBox="0 0 244.43136 137.70780845070422" height="137.70780845070422" width="244.43136"><g transform="matrix(1,0,0,1,0,0)"><svg width="244.43136" viewBox="5.4 -33.5 60.35 34" height="137.70780845070422" data-palette-color="url(#c166edf2-821e-4d96-a21e-ab09a417f4ca)"><path d="M27.5-33L31.3-33 31.3 0 26.35 0 12.55-22.1 9.05-28.3 9-28.3 9.2-23.3 9.2 0 5.4 0 5.4-33 10.35-33 24.1-11 27.65-4.65 27.7-4.65 27.5-9.7 27.5-33ZM52.7-33.5L52.7-33.5Q57.05-33.5 60.2-31.73 63.35-29.95 65.45-26.5L65.45-26.5 62.1-23.9Q60.25-27.1 57.92-28.43 55.6-29.75 52.3-29.75L52.3-29.75Q49.65-29.75 47.92-29 46.2-28.25 45.4-27.03 44.6-25.8 44.6-24.25L44.6-24.25Q44.6-22.5 45.7-21.18 46.8-19.85 50.1-19.1L50.1-19.1 57.25-17.5Q62-16.45 63.87-14.33 65.75-12.2 65.75-9.05L65.75-9.05Q65.75-6.25 64.17-4.08 62.6-1.9 59.75-0.7 56.9 0.5 53.05 0.5L53.05 0.5Q49.45 0.5 46.72-0.48 44-1.45 42.05-3.1 40.1-4.75 38.85-6.8L38.85-6.8 42.35-9.65Q43.3-7.75 44.8-6.3 46.3-4.85 48.42-4.05 50.55-3.25 53.3-3.25L53.3-3.25Q55.85-3.25 57.72-3.88 59.6-4.5 60.6-5.73 61.6-6.95 61.6-8.7L61.6-8.7Q61.6-10.3 60.55-11.58 59.5-12.85 56.6-13.5L56.6-13.5 48.85-15.25Q45.8-15.95 43.92-17.18 42.05-18.4 41.22-20.08 40.4-21.75 40.4-23.7L40.4-23.7Q40.4-26.35 41.87-28.58 43.35-30.8 46.12-32.15 48.9-33.5 52.7-33.5Z" opacity="1" transform="matrix(1,0,0,1,0,0)" fill="white" class="wordmark-text-0" id="SvgjsPath1350"></path></svg></g></svg></g></svg></g></svg></g></svg></g></svg></g></svg></g><g><path d="M245.816 0c68.262 0 123.6 55.338 123.6 123.6 0 68.262-55.338 123.6-123.6 123.6-35.281 0-67.11-14.782-89.63-38.491h8.777c21.052 20.006 49.519 32.282 80.853 32.282 64.833 0 117.391-52.558 117.39-117.391 0-64.833-52.558-117.391-117.39-117.391-31.334 0-59.801 12.277-80.853 32.282l-8.777 0c22.52-23.709 54.349-38.491 89.63-38.491z" fill="black" stroke="transparent"></path></g></svg></g><defs><mask></mask></defs></svg><rect width="395.52" height="247.2" fill="black" stroke="none" visibility="hidden"></rect></g></mask><linearGradient x1="0" x2="1" y1="0.578" y2="0.595" id="c166edf2-821e-4d96-a21e-ab09a417f4ca"><stop stop-color="#6ee2f5" offset="0"></stop><stop stop-color="#6454f0" offset="1"></stop></linearGradient><rect width="395.52" height="247.20000000000002" fill="url(#c166edf2-821e-4d96-a21e-ab09a417f4ca)" mask="url(#ce5dbe82-9e89-4053-b93e-e8bdff6b1a2a)" data-fill-palette-color="primary"></rect><mask id="8c779d02-cb50-414e-96b5-6b70b784f67b"><g id="SvgjsG1376"><svg viewBox="0 0 395.52 247.2" height="247.2" width="395.52"><g><svg></svg></g><g><svg viewBox="0 0 395.52 247.2" height="247.2" width="395.52"><g transform="matrix(1,0,0,1,75.54432000000001,54.7460957746479)"><svg viewBox="0 0 244.43135999999996 137.7078084507042" height="137.7078084507042" width="244.43135999999996"><g><svg viewBox="0 0 244.43135999999996 137.7078084507042" height="137.7078084507042" width="244.43135999999996"><g><svg viewBox="0 0 244.43136 137.70780845070422" height="137.7078084507042" width="244.43135999999996"><g><svg viewBox="0 0 244.43136 137.70780845070422" height="137.70780845070422" width="244.43136"><g id="SvgjsG1375"><svg viewBox="0 0 244.43136 137.70780845070422" height="137.70780845070422" width="244.43136" id="SvgjsSvg1374"><g><svg viewBox="0 0 244.43136 137.70780845070422" height="137.70780845070422" width="244.43136"><g transform="matrix(1,0,0,1,0,0)"><svg width="244.43136" viewBox="5.4 -33.5 60.35 34" height="137.70780845070422" data-palette-color="url(#c166edf2-821e-4d96-a21e-ab09a417f4ca)"></svg></g></svg></g></svg></g></svg></g></svg></g></svg></g></svg></g><g><path d="M245.816 0c68.262 0 123.6 55.338 123.6 123.6 0 68.262-55.338 123.6-123.6 123.6-35.281 0-67.11-14.782-89.63-38.491h8.777c21.052 20.006 49.519 32.282 80.853 32.282 64.833 0 117.391-52.558 117.39-117.391 0-64.833-52.558-117.391-117.39-117.391-31.334 0-59.801 12.277-80.853 32.282l-8.777 0c22.52-23.709 54.349-38.491 89.63-38.491z" fill="white" stroke="transparent"></path></g></svg></g><defs><mask></mask></defs><mask><g id="SvgjsG1373"><svg viewBox="0 0 395.52 247.2" height="247.2" width="395.52"><g><svg></svg></g><g><svg viewBox="0 0 395.52 247.2" height="247.2" width="395.52"><g transform="matrix(1,0,0,1,75.54432000000001,54.7460957746479)"><svg viewBox="0 0 244.43135999999996 137.7078084507042" height="137.7078084507042" width="244.43135999999996"><g><svg viewBox="0 0 244.43135999999996 137.7078084507042" height="137.7078084507042" width="244.43135999999996"><g><svg viewBox="0 0 244.43136 137.70780845070422" height="137.7078084507042" width="244.43135999999996"><g><svg viewBox="0 0 244.43136 137.70780845070422" height="137.70780845070422" width="244.43136"><g id="SvgjsG1372"><svg viewBox="0 0 244.43136 137.70780845070422" height="137.70780845070422" width="244.43136" id="SvgjsSvg1371"><g><svg viewBox="0 0 244.43136 137.70780845070422" height="137.70780845070422" width="244.43136"><g transform="matrix(1,0,0,1,0,0)"><svg width="244.43136" viewBox="5.4 -33.5 60.35 34" height="137.70780845070422" data-palette-color="url(#c166edf2-821e-4d96-a21e-ab09a417f4ca)"><path d="M27.5-33L31.3-33 31.3 0 26.35 0 12.55-22.1 9.05-28.3 9-28.3 9.2-23.3 9.2 0 5.4 0 5.4-33 10.35-33 24.1-11 27.65-4.65 27.7-4.65 27.5-9.7 27.5-33ZM52.7-33.5L52.7-33.5Q57.05-33.5 60.2-31.73 63.35-29.95 65.45-26.5L65.45-26.5 62.1-23.9Q60.25-27.1 57.92-28.43 55.6-29.75 52.3-29.75L52.3-29.75Q49.65-29.75 47.92-29 46.2-28.25 45.4-27.03 44.6-25.8 44.6-24.25L44.6-24.25Q44.6-22.5 45.7-21.18 46.8-19.85 50.1-19.1L50.1-19.1 57.25-17.5Q62-16.45 63.87-14.33 65.75-12.2 65.75-9.05L65.75-9.05Q65.75-6.25 64.17-4.08 62.6-1.9 59.75-0.7 56.9 0.5 53.05 0.5L53.05 0.5Q49.45 0.5 46.72-0.48 44-1.45 42.05-3.1 40.1-4.75 38.85-6.8L38.85-6.8 42.35-9.65Q43.3-7.75 44.8-6.3 46.3-4.85 48.42-4.05 50.55-3.25 53.3-3.25L53.3-3.25Q55.85-3.25 57.72-3.88 59.6-4.5 60.6-5.73 61.6-6.95 61.6-8.7L61.6-8.7Q61.6-10.3 60.55-11.58 59.5-12.85 56.6-13.5L56.6-13.5 48.85-15.25Q45.8-15.95 43.92-17.18 42.05-18.4 41.22-20.08 40.4-21.75 40.4-23.7L40.4-23.7Q40.4-26.35 41.87-28.58 43.35-30.8 46.12-32.15 48.9-33.5 52.7-33.5Z" opacity="1" transform="matrix(1,0,0,1,0,0)" fill="black" class="wordmark-text-0" id="SvgjsPath1370"></path></svg></g></svg></g></svg></g></svg></g></svg></g></svg></g></svg></g><g><path d="M245.816 0c68.262 0 123.6 55.338 123.6 123.6 0 68.262-55.338 123.6-123.6 123.6-35.281 0-67.11-14.782-89.63-38.491h8.777c21.052 20.006 49.519 32.282 80.853 32.282 64.833 0 117.391-52.558 117.39-117.391 0-64.833-52.558-117.391-117.39-117.391-31.334 0-59.801 12.277-80.853 32.282l-8.777 0c22.52-23.709 54.349-38.491 89.63-38.491z" fill="black" stroke="transparent"></path></g></svg></g><defs><mask></mask></defs></svg><rect width="395.52" height="247.2" fill="black" stroke="none" visibility="hidden"></rect></g></mask></svg><rect width="395.52" height="247.2" fill="black" stroke="none" visibility="hidden"></rect></g></mask><linearGradient x1="0" x2="1" y1="0.578" y2="0.595" id="8e886b1a-fcd5-4258-abcd-71ee8b90ae65"><stop stop-color="#6ee2f5" offset="0"></stop><stop stop-color="#6454f0" offset="1"></stop></linearGradient></svg><rect width="395.52" height="247.2" fill="none" stroke="none" visibility="hidden"></rect></g></svg></g></svg>